<?xml version="1.0" standalone="no"?>
<!DOCTYPE svg PUBLIC "-//W3C//DTD SVG 20010904//EN"
 "http://www.w3.org/TR/2001/REC-SVG-20010904/DTD/svg10.dtd">
<svg version="1.0" xmlns="http://www.w3.org/2000/svg"
 width="384.000000pt" height="384.000000pt" viewBox="0 0 384.000000 384.000000"
 preserveAspectRatio="xMidYMid meet">

<g transform="translate(0.000000,384.000000) scale(0.100000,-0.100000)"
fill="#000000" stroke="none">
<path d="M3 3478 c3 -387 11 -458 49 -458 11 0 18 -7 18 -20 0 -13 7 -20 20
-20 13 0 20 -7 20 -20 0 -11 7 -20 15 -20 8 0 15 -4 15 -10 0 -5 9 -10 20 -10
11 0 20 -4 20 -9 0 -13 76 -91 89 -91 6 0 11 -7 11 -16 0 -20 24 -44 44 -44 9
0 16 -4 16 -10 0 -5 7 -10 15 -10 8 0 15 -9 15 -20 0 -13 7 -20 20 -20 12 0
20 -7 20 -16 0 -9 10 -25 21 -35 21 -18 21 -18 -25 -17 -26 0 -50 -3 -54 -7
-4 -4 22 -4 58 -1 36 2 70 5 75 6 40 3 539 -12 575 -18 41 -6 -293 -21 -545
-23 -78 -1 -83 -2 -38 -8 46 -6 85 -21 55 -21 -7 0 -12 -4 -12 -10 0 -5 9 -10
20 -10 13 0 20 -7 20 -20 0 -11 7 -20 15 -20 8 0 15 -4 15 -10 0 -5 -4 -10
-10 -10 -5 0 -10 -4 -10 -10 0 -5 7 -10 15 -10 8 0 15 -4 15 -9 0 -6 20 -13
45 -17 48 -7 62 -24 20 -24 -14 0 -25 -4 -25 -10 0 -5 7 -7 16 -3 13 5 15 2
10 -14 -4 -13 -1 -27 9 -36 8 -9 15 -21 15 -28 0 -6 10 -20 21 -30 14 -12 20
-26 16 -39 -4 -16 0 -20 21 -22 15 -1 2 -4 -28 -8 l-55 -7 75 -2 c41 -2 102
-6 135 -10 56 -6 58 -7 25 -13 -19 -4 -61 -8 -92 -9 -63 -3 -70 -19 -7 -19 28
0 39 -4 39 -15 0 -8 8 -30 17 -50 15 -31 15 -37 3 -45 -11 -7 -12 -14 -5 -26
9 -13 -7 -35 -86 -116 -102 -104 -147 -172 -135 -203 5 -15 14 -17 51 -12 46
7 59 12 274 114 l135 63 23 -27 c12 -16 37 -49 55 -75 18 -26 36 -48 39 -48 4
0 9 18 13 40 7 45 29 68 103 110 29 17 53 36 53 44 0 11 70 66 85 66 3 0 5
-15 5 -32 0 -18 9 -70 20 -116 24 -101 25 -116 5 -108 -8 3 -14 0 -12 -7 1 -6
-8 -13 -21 -15 -21 -3 -51 7 -119 40 -23 11 -43 4 -43 -16 0 -20 -78 -94 -120
-116 -50 -26 -200 -64 -244 -62 -41 2 -212 57 -245 79 -19 13 -45 26 -58 29
-21 6 -23 12 -23 60 0 37 7 69 22 97 24 47 38 201 21 232 -8 14 -13 8 -27 -30
-10 -25 -23 -44 -30 -42 -6 2 -17 -5 -24 -17 -11 -19 -12 -15 -10 31 2 28 0
49 -4 46 -5 -2 -8 -17 -8 -34 0 -16 -5 -28 -11 -27 -17 4 -139 -169 -133 -187
4 -8 -2 -49 -12 -91 -14 -60 -23 -79 -43 -92 -14 -8 -37 -26 -51 -38 -25 -23
-107 -60 -115 -52 -2 2 17 18 43 36 140 94 136 90 149 145 6 29 15 63 19 77 7
23 6 24 -11 10 -10 -8 -25 -31 -34 -50 -13 -31 -15 -33 -19 -12 -2 15 12 42
42 83 28 37 46 71 46 87 l-1 27 -32 -36 c-17 -20 -40 -49 -50 -63 -10 -15 -22
-24 -26 -21 -5 2 -11 -24 -13 -59 -3 -50 -10 -71 -30 -99 -15 -19 -25 -37 -22
-40 3 -2 -27 -25 -65 -51 -62 -41 -77 -46 -126 -46 l-55 0 0 -95 0 -95 83 -1
c45 -1 140 -5 212 -9 101 -6 82 -7 -82 -3 l-213 5 0 -44 c0 -38 5 -48 30 -67
17 -12 76 -33 133 -48 92 -23 106 -30 143 -68 26 -27 63 -51 100 -65 55 -22
73 -23 279 -23 l220 0 -150 -7 c-82 -4 -167 -8 -188 -9 l-38 -1 18 -31 c21
-36 112 -107 180 -140 37 -18 74 -25 173 -31 151 -11 197 -24 68 -20 l-93 2
75 -36 c89 -43 107 -44 263 -4 126 31 288 108 383 181 28 22 89 54 136 72 48
19 129 64 190 106 73 50 125 77 170 90 123 35 151 53 280 183 l124 123 112 34
c90 27 111 37 107 50 -2 9 -1 201 4 426 10 464 10 466 88 534 43 39 103 68
103 51 0 -5 -9 -11 -20 -15 -30 -9 -81 -65 -101 -110 -10 -22 -19 -63 -19 -92
l0 -53 60 0 60 0 0 -40 0 -40 -60 0 c-33 0 -60 -4 -60 -10 0 -5 24 -10 54 -10
30 0 58 -4 61 -10 6 -10 -26 -15 -82 -11 -24 2 -33 -2 -33 -13 0 -13 12 -16
55 -16 30 0 55 5 55 10 0 6 5 9 11 8 16 -4 59 83 64 128 2 22 5 89 5 151 2 70
6 116 14 121 16 13 66 21 66 11 0 -5 -10 -9 -22 -9 -28 0 -58 -19 -42 -26 6
-3 9 -16 6 -29 -2 -14 0 -25 6 -25 16 0 35 39 28 56 -3 8 -2 13 3 10 4 -3 17
4 27 15 32 36 100 69 150 75 96 12 190 -36 239 -121 22 -36 28 -63 33 -130 9
-144 -33 -212 -145 -236 -66 -13 -199 -7 -234 11 -13 7 -35 22 -49 34 -21 18
-21 16 3 -10 34 -38 114 -63 203 -65 57 -1 58 -2 19 -9 -45 -9 -175 4 -205 20
-29 16 -24 5 7 -15 15 -10 56 -26 92 -35 55 -13 65 -19 66 -39 l2 -23 -100 7
c-55 4 -106 9 -113 12 -8 3 -15 -6 -19 -24 -11 -49 -38 -107 -70 -147 l-30
-38 -62 6 c-51 5 -63 4 -63 -8 0 -14 29 -26 69 -26 21 0 22 -3 15 -27 -5 -16
-8 -98 -8 -184 l2 -155 -54 -10 c-30 -5 -57 -7 -62 -2 -10 10 -97 -46 -174
-114 -56 -50 -69 -67 -82 -113 -22 -73 -21 -74 17 -64 17 4 79 20 137 34 158
38 162 39 160 48 -1 11 26 37 39 37 5 0 11 -8 12 -17 5 -50 4 -273 -2 -303 -4
-20 -7 17 -8 89 0 68 -3 122 -6 119 -3 -3 -6 -108 -7 -234 -1 -145 -4 -209 -9
-174 -4 30 -7 90 -8 133 -1 77 -2 78 -23 71 -13 -4 -32 -8 -43 -10 -11 -1 -48
-11 -82 -22 -35 -11 -63 -17 -63 -13 0 6 99 41 188 66 23 7 31 35 10 35 -9 0
-10 3 -2 8 6 4 11 22 12 40 1 32 -1 33 -26 26 -15 -4 -36 -7 -47 -8 -11 0 -26
-6 -33 -13 -7 -7 -19 -10 -26 -7 -8 3 -17 0 -21 -5 -3 -6 -11 -9 -16 -5 -5 3
-18 0 -27 -8 -15 -12 -16 -11 -3 5 8 9 29 25 47 33 19 9 34 22 34 29 0 16
-124 -36 -300 -126 -67 -34 -124 -57 -131 -53 -7 4 -9 3 -5 -4 9 -15 -81 -54
-108 -47 -15 5 -17 4 -7 -3 10 -7 6 -13 -18 -25 -26 -13 -32 -13 -39 -2 -5 10
-12 11 -22 5 -13 -9 -13 -11 0 -20 13 -9 13 -10 0 -11 -8 -1 -22 0 -30 1 -8 1
-12 -1 -8 -6 13 -13 -42 -35 -61 -24 -14 8 -13 9 6 10 12 0 25 5 28 10 5 7 -3
8 -22 3 -15 -4 -53 -8 -83 -7 -30 1 -58 -3 -61 -8 -3 -5 -14 -2 -23 8 -11 10
-36 18 -64 19 -33 2 -36 1 -9 -2 20 -2 37 -7 37 -11 0 -4 -9 -25 -19 -47 -11
-22 -22 -47 -25 -56 -2 -9 -25 -22 -53 -30 -43 -11 -45 -13 -20 -17 16 -2 34
2 42 8 10 8 15 8 21 -1 4 -8 3 -9 -4 -5 -11 7 -17 -25 -13 -61 1 -7 -5 -13
-14 -13 -9 0 -24 -7 -33 -16 -10 -11 -17 -13 -20 -5 -5 16 -47 14 -61 -3 -10
-12 -21 -10 -71 15 -68 34 -89 37 -69 12 12 -15 12 -16 -3 -11 -10 4 -19 1
-23 -10 -3 -9 -9 -12 -13 -7 -4 6 -28 18 -54 27 l-48 17 0 -24 c0 -14 13 -37
33 -55 l32 -31 -28 11 c-16 5 -38 10 -50 10 -23 0 -127 50 -127 61 0 4 8 9 18
12 9 3 47 16 85 30 37 14 67 24 67 22 0 -2 16 3 35 11 46 19 206 56 220 51 6
-3 24 14 40 37 18 25 21 35 9 25 -19 -16 -318 -109 -361 -112 -11 -1 -19 -5
-17 -9 5 -8 -88 -44 -139 -53 -21 -4 -40 -11 -43 -16 -3 -5 -9 -7 -14 -4 -5 3
-19 0 -30 -7 -17 -11 -22 -11 -31 2 -9 12 -10 11 -6 -6 4 -18 1 -20 -22 -15
-19 3 -21 6 -8 9 9 2 17 7 17 12 0 8 -139 -27 -195 -50 -16 -7 -43 -16 -58
-21 -25 -7 -27 -6 -17 6 11 13 6 15 -29 15 -39 0 -40 -1 -35 -29 4 -20 2 -30
-10 -34 -12 -5 -15 -14 -10 -32 3 -14 2 -25 -2 -26 -5 -1 -21 -2 -37 -3 -36
-4 -43 -12 -26 -32 8 -10 13 -27 12 -38 -1 -15 0 -16 3 -3 6 18 19 22 28 8 4
-5 0 -12 -6 -15 -7 -4 -3 -4 10 -2 13 2 22 -1 22 -8 0 -17 -161 4 -184 23 -12
11 -19 11 -30 1 -20 -16 -10 -38 25 -56 32 -16 40 -48 12 -42 -10 2 -17 10
-16 16 2 7 -6 12 -18 12 -13 0 -25 -11 -34 -34 -8 -19 -19 -37 -25 -41 -5 -3
-10 -15 -10 -27 0 -16 -5 -19 -22 -15 -11 3 -35 -1 -51 -10 -28 -14 -32 -14
-45 3 -13 18 -14 18 -7 -3 9 -32 -22 -31 -36 1 -10 21 -14 23 -30 13 -11 -7
-19 -17 -19 -24 0 -8 -15 -13 -37 -14 -21 -1 -30 -3 -20 -6 12 -3 17 -15 17
-44 l0 -39 994 0 c836 0 1002 2 1038 14 24 8 63 20 88 26 25 6 53 14 64 17 10
3 16 1 13 -4 -4 -6 5 -16 18 -23 14 -7 25 -17 25 -22 0 -4 342 -8 760 -8 l760
0 0 181 c0 171 -1 181 -17 168 -10 -8 -21 -19 -26 -26 -4 -7 -46 -37 -92 -69
-58 -38 -89 -53 -98 -47 -12 10 -133 -28 -122 -38 2 -3 -9 -4 -25 -1 -38 5
-38 17 0 37 17 9 30 18 30 21 0 3 -6 2 -13 -2 -7 -4 -8 -3 -4 2 5 5 15 9 23 9
7 0 14 5 13 10 0 6 -8 8 -17 7 -26 -6 -11 4 33 22 28 11 35 12 23 2 -10 -7
-18 -16 -18 -20 0 -17 133 88 217 172 l93 92 0 321 0 321 -37 -7 c-21 -3 -48
-9 -60 -12 -13 -3 -23 -1 -23 5 0 6 -8 8 -17 6 -10 -3 -27 1 -37 9 -18 13 -11
17 77 46 76 26 97 37 97 51 0 12 -7 18 -19 17 -11 0 -18 -4 -16 -7 7 -11 -319
-128 -330 -119 -5 5 -14 9 -20 9 -5 0 -3 -5 5 -10 12 -7 7 -12 -22 -25 -47
-19 -43 -20 -46 14 -2 25 4 31 50 54 75 36 219 95 313 127 l80 28 3 55 3 55
-201 -104 c-110 -57 -203 -104 -207 -104 -11 0 141 88 267 155 134 72 142 78
138 108 -3 24 -7 23 -146 -59 -134 -78 -142 -81 -136 -56 9 39 44 73 148 143
50 35 101 70 113 78 19 14 22 25 23 81 l0 64 -72 -70 c-40 -39 -101 -94 -135
-123 l-63 -53 0 74 0 73 135 135 c74 74 135 139 135 144 0 5 -59 -49 -131
-120 -71 -71 -133 -131 -136 -134 -19 -16 13 61 38 90 16 19 48 58 70 85 23
28 58 68 78 90 20 22 46 53 59 69 l22 29 0 893 0 894 -1920 0 -1920 0 3 -362z
m327 342 c0 -5 -9 -10 -20 -10 -11 0 -20 5 -20 10 0 6 9 10 20 10 11 0 20 -4
20 -10z m2370 -20 c0 -5 -4 -10 -10 -10 -5 0 -10 5 -10 10 0 6 5 10 10 10 6 0
10 -4 10 -10z m-880 -30 c0 -5 -7 -10 -15 -10 -8 0 -15 5 -15 10 0 6 7 10 15
10 8 0 15 -4 15 -10z m1700 -14 c0 -2 -7 -6 -15 -10 -8 -3 -15 -1 -15 4 0 6 7
10 15 10 8 0 15 -2 15 -4z m-2005 -16 c3 -5 1 -10 -4 -10 -6 0 -11 5 -11 10 0
6 2 10 4 10 3 0 8 -4 11 -10z m1495 -30 c0 -5 -2 -10 -4 -10 -3 0 -8 5 -11 10
-3 6 -1 10 4 10 6 0 11 -4 11 -10z m-2000 -20 c0 -5 -7 -10 -15 -10 -8 0 -15
5 -15 10 0 6 7 10 15 10 8 0 15 -4 15 -10z m1330 6 c0 -11 -19 -15 -25 -6 -3
5 1 10 9 10 9 0 16 -2 16 -4z m1355 -46 c3 -5 -1 -10 -9 -10 -9 0 -16 5 -16
10 0 6 4 10 9 10 6 0 13 -4 16 -10z m-3085 -10 c0 -5 -11 -10 -25 -10 -14 0
-25 5 -25 10 0 6 11 10 25 10 14 0 25 -4 25 -10z m2690 0 c0 -5 -4 -10 -10
-10 -5 0 -10 5 -10 10 0 6 5 10 10 10 6 0 10 -4 10 -10z m-2850 -10 c0 -5 -11
-10 -25 -10 -14 0 -25 5 -25 10 0 6 11 10 25 10 14 0 25 -4 25 -10z m1235 -30
c3 -5 -1 -10 -9 -10 -9 0 -16 5 -16 10 0 6 4 10 9 10 6 0 13 -4 16 -10z m1105
-18 c0 -5 -36 -16 -81 -26 -95 -20 -100 -31 -8 -16 78 12 122 13 115 1 -3 -4
-56 -17 -118 -27 -62 -10 -105 -20 -95 -22 32 -7 17 -18 -43 -31 -64 -14 -100
-40 -39 -27 73 15 146 18 153 8 9 -16 0 -19 -149 -57 -85 -21 -146 -42 -163
-56 -19 -15 -21 -20 -7 -14 101 41 292 76 331 61 36 -14 -6 -27 -127 -41 -68
-8 -125 -14 -127 -15 -2 0 0 -4 3 -10 3 -5 28 -10 56 -10 35 0 49 -4 49 -14 0
-20 -20 -33 -65 -41 -59 -10 -148 -38 -161 -50 -12 -12 9 -12 224 1 81 5 112
4 112 -5 0 -6 -15 -11 -32 -12 -18 0 -42 -5 -53 -10 -14 -7 -5 -8 32 -5 52 5
78 -6 45 -19 -9 -4 -64 -8 -121 -10 -60 -3 -117 -10 -135 -18 -46 -21 -84 -28
-91 -17 -3 5 -12 7 -20 4 -8 -4 -12 -11 -8 -17 3 -6 1 -7 -5 -3 -12 7 -69 -18
-64 -28 1 -3 2 -14 1 -23 0 -15 -2 -15 -9 2 -8 18 -9 17 -9 -7 -1 -36 13 -36
117 2 98 36 132 38 132 10 0 -10 -8 -24 -17 -30 -16 -10 -16 -11 2 -4 33 12
105 17 105 6 0 -5 14 -12 31 -16 18 -3 29 -11 27 -18 -6 -16 -154 -67 -215
-74 -45 -5 -47 -4 -29 10 24 19 13 20 -38 2 -23 -8 -33 -16 -25 -19 8 -3 -2
-5 -21 -5 -36 1 -86 -19 -76 -30 4 -3 12 0 18 6 17 17 75 15 85 -3 7 -12 15
-13 63 0 30 8 98 15 150 17 79 3 95 0 95 -12 0 -11 -49 -31 -164 -69 -114 -37
-159 -56 -150 -63 10 -6 7 -8 -11 -6 -17 2 -26 -2 -28 -14 -5 -24 15 -23 68 6
25 13 62 29 84 36 32 10 40 10 53 -3 24 -23 8 -65 -32 -89 -20 -11 -35 -28
-35 -39 0 -10 -13 -25 -30 -34 -32 -17 -39 -42 -15 -52 9 -3 35 2 58 11 57 22
67 20 67 -8 0 -20 -11 -30 -54 -50 -30 -14 -58 -30 -61 -36 -3 -5 22 4 57 20
35 17 69 30 76 30 31 0 2 -27 -61 -57 -38 -18 -67 -39 -67 -47 0 -13 7 -12 43
4 51 24 76 25 83 5 10 -25 -16 -45 -113 -91 -94 -44 -99 -49 -85 -71 6 -10 17
-8 47 6 80 38 110 33 117 -19 3 -21 -4 -28 -45 -48 -26 -12 -45 -27 -42 -32
10 -16 30 -12 89 19 54 29 56 29 66 11 9 -17 3 -23 -52 -51 -35 -18 -57 -34
-51 -36 7 -3 38 9 70 26 61 33 73 37 73 21 0 -6 -28 -24 -62 -40 -71 -34 -65
-41 8 -10 26 11 49 19 51 17 7 -7 -26 -29 -62 -42 l-36 -12 59 -39 c33 -21 80
-51 106 -66 54 -32 59 -48 14 -48 -77 0 -238 101 -354 221 -83 87 -134 164
-182 274 -34 79 -35 80 -19 122 13 34 14 49 5 68 -6 14 -16 25 -22 25 -26 0
-26 255 0 357 37 147 92 249 198 361 107 113 240 192 391 232 73 20 155 26
155 12z m-503 -8 c-3 -3 -12 -4 -19 -1 -8 3 -5 6 6 6 11 1 17 -2 13 -5z m-182
-14 c3 -5 -1 -10 -10 -10 -9 0 -13 5 -10 10 3 6 8 10 10 10 2 0 7 -4 10 -10z
m-1291 -39 c7 -11 -14 -20 -31 -13 -7 2 -13 8 -13 13 0 12 37 12 44 0z m2876
-31 c0 -5 -4 -10 -10 -10 -5 0 -10 5 -10 10 0 6 5 10 10 10 6 0 10 -4 10 -10z
m-2450 -10 c0 -5 -5 -10 -11 -10 -5 0 -7 5 -4 10 3 6 8 10 11 10 2 0 4 -4 4
-10z m930 -14 c0 -11 -19 -15 -25 -6 -3 5 1 10 9 10 9 0 16 -2 16 -4z m-565
-16 c3 -5 -1 -10 -9 -10 -9 0 -16 5 -16 10 0 6 4 10 9 10 6 0 13 -4 16 -10z
m-997 -37 c2 -8 -6 -13 -22 -13 -25 0 -33 10 -19 24 10 10 36 3 41 -11z m2947
7 c3 -5 -1 -10 -9 -10 -9 0 -16 5 -16 10 0 6 4 10 9 10 6 0 13 -4 16 -10z
m-2108 -66 c-9 -9 -28 6 -21 18 4 6 10 6 17 -1 6 -6 8 -13 4 -17z m-309 -41
c2 -8 -5 -13 -17 -13 -21 0 -35 13 -24 24 10 10 36 3 41 -11z m-338 -19 c0 -9
-5 -14 -12 -12 -18 6 -21 28 -4 28 9 0 16 -7 16 -16z m2890 -4 c0 -5 -4 -10
-10 -10 -5 0 -10 5 -10 10 0 6 5 10 10 10 6 0 10 -4 10 -10z m-1855 -10 c3 -6
-1 -13 -10 -16 -19 -8 -30 0 -20 15 8 14 22 14 30 1z m1965 -40 c0 -5 -4 -10
-10 -10 -5 0 -10 5 -10 10 0 6 5 10 10 10 6 0 10 -4 10 -10z m-2170 -78 c0
-13 -12 -22 -22 -16 -10 6 -1 24 13 24 5 0 9 -4 9 -8z m-260 -12 c0 -5 -6 -10
-14 -10 -8 0 -18 5 -21 10 -3 6 3 10 14 10 12 0 21 -4 21 -10z m-412 -47 c2
-8 -6 -13 -22 -13 -25 0 -33 10 -19 24 10 10 36 3 41 -11z m1087 -13 c3 -5 -1
-10 -9 -10 -9 0 -16 5 -16 10 0 6 4 10 9 10 6 0 13 -4 16 -10z m-801 -46 c26
-10 18 -24 -14 -24 -30 0 -41 14 -17 23 6 3 13 6 14 6 1 1 8 -2 17 -5z m306
-34 c0 -5 -7 -10 -16 -10 -8 0 -12 5 -9 10 3 6 10 10 16 10 5 0 9 -4 9 -10z
m2150 -24 c0 -3 -4 -8 -10 -11 -5 -3 -10 -1 -10 4 0 6 5 11 10 11 6 0 10 -2
10 -4z m-1956 -45 c3 -5 0 -11 -8 -14 -15 -6 -26 1 -26 15 0 11 27 10 34 -1z
m2066 -1 c0 -5 -4 -10 -10 -10 -5 0 -10 5 -10 10 0 6 5 10 10 10 6 0 10 -4 10
-10z m-2492 -122 c-5 -15 -58 -24 -58 -10 0 15 12 22 38 22 14 0 22 -5 20 -12z
m1267 3 c-11 -10 -110 -41 -132 -41 -32 0 -8 17 45 32 66 19 100 22 87 9z
m-1485 -5 c0 -3 -4 -8 -10 -11 -5 -3 -10 -1 -10 4 0 6 5 11 10 11 6 0 10 -2
10 -4z m465 -46 c-3 -5 -15 -10 -26 -10 -11 0 -17 5 -14 10 3 6 15 10 26 10
11 0 17 -4 14 -10z m265 2 c0 -13 -12 -22 -22 -16 -10 6 -1 24 13 24 5 0 9 -4
9 -8z m-180 -182 c0 -5 -4 -10 -9 -10 -6 0 -13 5 -16 10 -3 6 1 10 9 10 9 0
16 -4 16 -10z m-770 -110 c0 -5 -5 -10 -11 -10 -5 0 -7 5 -4 10 3 6 8 10 11
10 2 0 4 -4 4 -10z m370 -17 c0 -5 -15 -15 -33 -23 -32 -15 -61 -60 -72 -112
-3 -16 -25 -42 -57 -68 l-53 -42 -3 43 c-2 24 1 60 7 79 13 44 74 107 115 119
39 11 96 13 96 4z m-530 -47 c0 -3 -4 -8 -10 -11 -5 -3 -10 -1 -10 4 0 6 5 11
10 11 6 0 10 -2 10 -4z m1240 -106 c0 -5 -4 -10 -10 -10 -5 0 -10 5 -10 10 0
6 5 10 10 10 6 0 10 -4 10 -10z m1598 -12 c7 -7 12 -18 12 -26 0 -9 -7 -5 -19
9 -19 23 -19 24 -40 5 -12 -11 -21 -29 -21 -42 0 -31 35 -41 61 -18 19 17 20
17 13 -2 -4 -10 -12 -22 -17 -25 -5 -4 -9 -41 -10 -83 0 -75 -11 -109 -13 -41
-1 67 -44 70 -58 5 -5 -29 -6 -30 -24 -13 -10 10 -15 20 -12 23 3 3 16 49 29
103 23 95 36 116 72 117 8 0 20 -5 27 -12z m-2323 -57 c-24 -20 -125 -91 -125
-86 0 5 121 95 129 95 3 0 1 -4 -4 -9z m-175 -75 c0 -2 -7 -7 -16 -10 -8 -3
-12 -2 -9 4 6 10 25 14 25 6z m-40 -30 c0 -3 -4 -8 -10 -11 -5 -3 -10 -1 -10
4 0 6 5 11 10 11 6 0 10 -2 10 -4z m45 -16 c-3 -5 -20 -19 -38 -30 -32 -22
-32 -22 3 9 37 32 45 37 35 21z m955 -60 c0 -5 -4 -10 -10 -10 -5 0 -10 5 -10
10 0 6 5 10 10 10 6 0 10 -4 10 -10z m-1123 -26 c-3 -3 -12 -4 -19 -1 -8 3 -5
6 6 6 11 1 17 -2 13 -5z m73 2 c0 -2 -7 -7 -16 -10 -8 -3 -12 -2 -9 4 6 10 25
14 25 6z m2213 -46 c23 0 28 -3 20 -11 -8 -8 -30 -9 -70 -4 -32 5 -65 7 -75 6
-9 -1 -20 3 -24 10 -5 9 8 11 56 6 35 -4 77 -7 93 -7z m17 -89 c0 -20 -3 -52
-6 -72 l-6 -36 -64 -2 c-39 -1 -64 2 -64 9 0 5 6 10 13 11 10 0 10 2 0 6 -7 2
-13 13 -13 24 0 10 -4 19 -10 19 -5 0 -7 -6 -4 -13 2 -7 0 -24 -5 -38 -8 -18
-10 -5 -10 61 l-1 85 85 -9 85 -10 0 -35z m-2374 -1 c-33 -40 -35 -77 -3 -83
14 -3 9 -5 -15 -6 -21 0 -38 4 -41 12 -4 12 21 55 56 94 31 34 33 18 3 -17z
m-306 -80 c-34 -87 -39 -82 -9 11 31 96 31 97 36 79 2 -8 -10 -49 -27 -90z
m1159 52 c-3 -36 2 -52 16 -52 8 0 15 -4 15 -10 0 -5 -12 -10 -27 -10 -22 0
-25 -2 -13 -10 8 -5 11 -10 6 -10 -5 0 -3 -7 4 -15 8 -9 21 -13 35 -9 33 8 63
-24 54 -56 -6 -22 -14 -10 -10 13 1 5 -3 6 -9 2 -10 -6 -74 36 -97 64 -17 19
-18 85 -1 75 8 -5 9 -2 4 11 -3 10 -4 27 0 38 6 18 7 19 16 3 5 -9 8 -24 7
-34z m538 -22 c-14 -64 -19 -67 -31 -17 -6 24 -26 39 -26 20 0 -5 -10 -9 -22
-10 -50 -4 -113 -20 -88 -22 23 -2 24 -3 5 -11 -11 -5 -29 -9 -40 -9 -17 -1
-17 1 -5 9 13 9 13 10 0 10 -9 0 -22 -16 -29 -36 -7 -19 -15 -33 -18 -30 -3 3
0 19 6 36 9 27 8 31 -6 28 -9 -2 -23 -25 -33 -54 -30 -86 -64 -127 -160 -189
-76 -50 -89 -63 -95 -92 -3 -18 -9 -33 -14 -33 -4 0 -14 -12 -21 -26 -13 -24
-18 -25 -82 -23 -38 1 -71 -1 -75 -4 -3 -4 -36 -7 -72 -7 l-66 0 25 20 c14 11
65 41 113 66 48 26 109 64 135 85 26 22 74 48 110 60 53 18 62 24 57 40 -5 14
-2 19 12 19 15 0 16 -2 3 -11 -13 -8 -12 -10 4 -7 12 2 35 35 66 92 26 50 56
94 68 99 17 8 282 64 289 62 2 -1 -3 -30 -10 -65z m794 -84 c3 -3 47 -9 98
-13 l91 -6 -1 -75 -2 -75 -103 6 c-60 3 -104 2 -104 -3 0 -17 38 -30 88 -30
72 0 112 -10 112 -28 0 -13 -15 -14 -106 -8 -84 5 -105 4 -102 -6 5 -15 67
-26 146 -27 48 -1 52 -3 52 -26 0 -13 -11 -44 -24 -68 -14 -24 -37 -89 -52
-145 l-27 -102 -52 0 c-29 0 -67 -3 -84 -6 l-32 -7 6 104 c3 57 12 169 20 249
8 80 12 159 10 175 -2 17 -6 53 -10 80 -6 41 -4 53 12 70 11 11 26 35 34 53
l14 33 5 -70 c3 -38 8 -72 11 -75z m-411 88 c-45 -45 -106 -91 -159 -119 -26
-13 -30 -13 -45 4 -9 10 -16 24 -16 32 0 15 196 111 260 128 2 0 -16 -20 -40
-45z m21 -31 c-11 -21 -20 -32 -21 -25 0 17 30 75 36 69 3 -3 -4 -22 -15 -44z
m-486 7 c3 -5 1 -10 -4 -10 -6 0 -11 5 -11 10 0 6 2 10 4 10 3 0 8 -4 11 -10z
m-1679 -61 c-9 -29 -16 -80 -16 -114 l0 -60 -61 -34 c-33 -18 -62 -31 -65 -28
-7 6 45 42 74 51 23 8 47 41 38 54 -8 13 14 165 26 179 19 23 20 7 4 -48z
m2109 20 c-5 -15 -4 -19 4 -15 6 4 11 3 11 -2 0 -10 -30 -25 -37 -19 -5 6 15
57 22 57 4 0 3 -10 0 -21z m-505 -13 c0 -2 -8 -10 -17 -17 -16 -13 -17 -12 -4
4 13 16 21 21 21 13z m-103 -64 c-2 -15 -7 -33 -11 -40 -4 -7 -9 -22 -11 -34
-3 -12 -10 -25 -17 -30 -7 -4 -8 -8 -2 -8 17 0 68 68 69 91 0 12 5 24 12 26
13 5 7 -29 -12 -62 -6 -11 -11 -34 -10 -52 0 -17 -3 -29 -7 -27 -4 3 -8 1 -8
-5 0 -12 -163 -113 -206 -128 -22 -8 -35 -8 -42 -1 -16 16 15 58 36 51 15 -4
15 -3 2 6 -13 10 -11 15 15 37 17 14 50 39 75 56 25 18 49 38 53 45 5 7 12 11
16 9 4 -3 15 17 25 45 20 55 27 62 23 21z m523 -6 c0 -9 -7 -12 -20 -9 -31 8
-34 23 -6 23 16 0 26 -6 26 -14z m-1095 -36 c-3 -5 -10 -10 -16 -10 -5 0 -9 5
-9 10 0 6 7 10 16 10 8 0 12 -4 9 -10z m-1090 -40 c-3 -5 -16 -15 -28 -21 -19
-9 -19 -8 3 10 28 23 34 26 25 11z m2960 -302 c18 -35 25 -63 25 -106 l0 -60
-57 -5 c-32 -2 -62 -1 -67 4 -12 11 8 210 24 240 l12 22 20 -24 c10 -13 30
-45 43 -71z m165 -82 c0 -3 -4 -8 -10 -11 -5 -3 -10 -1 -10 4 0 6 5 11 10 11
6 0 10 -2 10 -4z m-3040 -16 c-102 -4 -214 -11 -250 -15 -36 -4 -62 -4 -58 0
12 12 167 22 338 22 l155 0 -185 -7z m305 -60 c-253 -3 -480 -3 -505 1 -25 3
182 6 460 6 l505 -1 -460 -6z m2915 -30 c0 -5 -10 -10 -22 -10 -19 0 -20 2 -8
10 19 13 30 13 30 0z m-71 -16 c-10 -13 -10 -17 1 -24 7 -4 19 -6 27 -3 31 12
10 -8 -23 -22 -42 -17 -56 -19 -34 -5 11 8 7 9 -14 4 -19 -5 -31 -2 -37 7 -6
10 -8 8 -7 -7 2 -15 8 -20 23 -17 21 3 16 1 -40 -22 -30 -12 -30 -12 -30 21 0
17 2 31 5 29 3 -2 34 10 70 25 78 34 76 34 59 14z m-567 -31 c1 -37 1 -37 5
-5 4 31 5 32 54 32 l49 0 0 -159 0 -159 -67 -4 c-38 -3 -70 -4 -71 -2 -12 9
-22 97 -22 207 l0 127 25 0 c22 0 25 -5 27 -37z m318 -35 c0 -35 -3 -113 -6
-174 l-7 -111 -51 2 c-64 2 -64 3 -65 198 l-1 147 65 0 65 0 0 -62z m357 51
c-6 -4 -32 -3 -57 1 l-45 8 57 -1 c32 -1 52 -4 45 -8z m-2004 -46 c-73 -2
-193 -2 -265 0 -73 1 -14 3 132 3 146 0 205 -2 133 -3z m-600 -10 c-34 -2 -93
-2 -130 0 -37 2 -9 3 62 3 72 0 102 -1 68 -3z m104 1 c-3 -3 -12 -4 -19 -1 -8
3 -5 6 6 6 11 1 17 -2 13 -5z m2590 -10 c-3 -3 -12 -4 -19 -1 -8 3 -5 6 6 6
11 1 17 -2 13 -5z m-38 -8 c-2 -2 -20 -6 -39 -10 -25 -4 -31 -3 -20 4 14 9 69
15 59 6z m-95 -27 c-31 -12 -40 -9 -20 6 10 8 24 11 29 8 6 -4 2 -10 -9 -14z
m-1014 3 c0 -5 -23 -16 -51 -25 -57 -18 -58 -12 -1 14 43 20 52 22 52 11z
m107 -8 c-3 -3 -12 -4 -19 -1 -8 3 -5 6 6 6 11 1 17 -2 13 -5z m858 -4 c-3 -5
-15 -10 -25 -10 -10 0 -22 -4 -25 -10 -3 -5 -15 -10 -25 -10 -29 0 -70 -22
-63 -33 3 -6 1 -7 -5 -3 -26 16 -9 32 56 53 76 24 96 27 87 13z m-2277 -7
c-32 -2 -84 -2 -115 0 -32 2 -6 3 57 3 63 0 89 -1 58 -3z m1332 -18 c-14 -8
-29 -14 -35 -14 -5 0 1 6 15 14 14 8 30 14 35 14 6 0 -1 -6 -15 -14z m169 11
c-7 -7 -123 -35 -127 -31 -5 5 87 33 112 34 11 1 17 -1 15 -3z m874 -23 c-13
-2 -33 -2 -45 0 -13 2 -3 4 22 4 25 0 35 -2 23 -4z m-86 -9 c-3 -3 -12 -4 -19
-1 -8 3 -5 6 6 6 11 1 17 -2 13 -5z m-937 -14 c-8 -5 -19 -10 -25 -10 -5 0 -3
5 5 10 8 5 20 10 25 10 6 0 3 -5 -5 -10z m-1807 -7 c-46 -2 -120 -2 -165 0
-46 1 -9 3 82 3 91 0 128 -2 83 -3z m1637 -18 c-7 -9 -15 -13 -19 -10 -3 3 1
10 9 15 21 14 24 12 10 -5z m105 0 c-50 -21 -83 -26 -40 -6 22 11 47 19 55 19
8 0 2 -5 -15 -13z m-135 -9 c0 -2 -9 -6 -20 -9 -11 -3 -18 -1 -14 4 5 9 34 13
34 5z m1187 -2 c-3 -3 -12 -4 -19 -1 -8 3 -5 6 6 6 11 1 17 -2 13 -5z m-152
-18 c-75 -13 -80 -13 -70 3 3 6 35 10 73 10 l67 -2 -70 -11z m-1095 -4 c0 -11
-85 -48 -129 -57 -24 -5 -30 -10 -20 -16 10 -6 4 -9 -18 -9 l-31 0 14 -47 c8
-25 14 -51 14 -57 0 -6 -23 -12 -52 -14 -29 -2 -54 -4 -55 -6 -8 -8 11 -36 23
-36 8 0 14 -5 14 -10 0 -7 -6 -7 -17 -2 -28 15 -48 3 -26 -15 17 -13 16 -13
-4 -3 -27 12 -47 46 -34 55 5 3 11 -5 13 -17 2 -13 6 -18 10 -12 4 5 -2 23
-14 40 -11 16 -18 21 -14 12 3 -10 1 -18 -4 -18 -14 0 -43 61 -33 70 4 4 51
25 103 46 52 21 131 53 175 70 93 39 85 36 85 26z m204 -6 c-7 -17 -35 -30
-43 -19 -4 4 -5 7 -2 6 2 -1 13 4 25 12 25 18 27 18 20 1z m323 8 c-3 -3 -12
-4 -19 -1 -8 3 -5 6 6 6 11 1 17 -2 13 -5z m-218 -10 c19 -4 31 -13 31 -23 0
-9 9 -31 20 -49 l21 -33 -28 2 c-49 4 -169 -3 -148 -9 l20 -5 -20 -8 c-17 -7
-16 -8 8 -8 15 -1 27 4 27 9 0 6 10 10 22 10 l22 0 -21 -15 c-12 -8 -49 -18
-82 -22 -34 -3 -61 -10 -61 -15 0 -5 -6 -6 -12 -1 -7 4 -22 9 -33 11 -19 2
-19 2 -1 -11 12 -9 15 -16 9 -20 -13 -8 -92 26 -146 61 -44 30 -55 20 86 72
76 28 77 28 77 8 0 -12 -3 -18 -6 -15 -10 10 -65 -33 -58 -44 4 -6 11 -5 17 4
7 7 32 19 57 26 67 19 127 48 134 66 6 16 18 18 65 9z m-1336 -41 c-7 -2 -19
-2 -25 0 -7 3 -2 5 12 5 14 0 19 -2 13 -5z m130 -10 c-7 -2 -19 -2 -25 0 -7 3
-2 5 12 5 14 0 19 -2 13 -5z m-220 -30 c-29 -2 -78 -2 -110 0 -32 2 -8 3 52 3
61 0 87 -1 58 -3z m2202 -8 c39 -17 21 -18 -25 0 -19 7 -28 14 -20 14 8 0 29
-6 45 -14z m60 -25 c3 -6 -1 -7 -9 -4 -18 7 -21 14 -7 14 6 0 13 -4 16 -10z
m-493 -44 c-3 -29 -9 -47 -20 -51 -22 -8 -33 6 -39 54 l-6 41 34 0 34 0 -3
-44z m238 -22 c0 -27 -5 -35 -24 -40 -35 -8 -46 2 -46 45 0 36 1 37 35 33 32
-4 35 -7 35 -38z m-745 -32 c-1 -2 -15 0 -31 4 -25 6 -26 8 -9 14 16 6 49 -9
40 -18z m-307 3 c3 -3 -4 -5 -16 -5 -11 0 -23 4 -27 9 -6 10 33 6 43 -4z m392
-31 c0 -2 -7 -4 -15 -4 -8 0 -15 4 -15 10 0 5 7 7 15 4 8 -4 15 -8 15 -10z
m415 -36 c-4 -24 -11 -48 -17 -55 -6 -7 -4 -13 4 -16 7 -3 -8 -6 -34 -6 -44
-1 -48 1 -48 23 0 39 52 92 93 95 5 1 6 -18 2 -41z m233 -30 c7 -30 24 -64 39
-81 24 -25 25 -27 6 -16 -13 8 -23 17 -23 21 0 13 -38 3 -58 -15 -18 -17 -20
-17 -36 7 -33 51 -10 136 37 136 19 0 24 -9 35 -52z m-515 23 c26 -8 47 -19
47 -27 0 -15 -14 -10 -90 29 -38 19 -32 19 43 -2z m-562 -7 c8 -10 8 -14 0
-14 -6 0 -11 5 -11 11 0 5 -4 7 -10 4 -5 -3 -17 -2 -26 3 -14 8 -12 10 9 10
15 0 32 -7 38 -14z m1231 -13 c3 10 6 10 12 1 4 -7 3 -12 -3 -12 -6 0 -8 -8
-5 -17 5 -15 4 -16 -5 -3 -7 8 -16 24 -22 35 -9 19 -9 19 4 2 11 -13 16 -14
19 -6z m93 -20 c2 -4 -9 -5 -26 -3 -16 2 -29 8 -29 12 0 9 48 1 55 -9z m-1998
-50 c0 -9 -7 -6 -19 9 -10 12 -18 17 -18 10 0 -10 -3 -10 -15 0 -12 10 -13 15
-4 21 15 9 56 -20 56 -40z m-451 32 c-11 -3 -31 -18 -45 -34 -14 -16 -31 -29
-38 -29 -7 0 -13 -7 -13 -16 0 -8 -4 -12 -10 -9 -9 5 -15 -15 -11 -37 2 -11
-17 -10 -21 1 -1 5 -9 3 -16 -5 -11 -12 -8 -14 15 -15 24 0 25 -1 8 -8 -14 -6
-29 -1 -52 16 -18 14 -37 22 -43 18 -12 -7 -50 22 -50 38 0 6 9 -1 21 -14 13
-15 23 -19 27 -13 4 6 16 11 27 11 48 -1 75 4 75 13 0 7 -20 9 -60 4 -45 -5
-60 -3 -60 6 0 8 8 10 21 7 12 -3 29 -2 38 2 75 37 109 49 119 39 7 -7 16 -4
28 11 10 11 28 20 39 20 19 -1 19 -2 1 -6z m264 -47 c0 -11 -19 -15 -25 -6 -3
5 1 10 9 10 9 0 16 -2 16 -4z m240 -12 c0 -9 5 -12 12 -8 7 4 8 3 4 -4 -4 -6
-13 -9 -21 -5 -17 6 -21 33 -5 33 6 0 10 -7 10 -16z m-205 -22 c-3 -3 -11 0
-18 7 -9 10 -8 11 6 5 10 -3 15 -9 12 -12z m49 -19 c3 -7 2 -13 -3 -13 -5 0
-14 6 -20 13 -8 10 -7 14 4 14 8 0 16 -6 19 -14z m266 -29 c0 -2 -9 0 -20 6
-11 6 -20 13 -20 16 0 2 9 0 20 -6 11 -6 20 -13 20 -16z m-685 -4 c3 -6 -1 -7
-9 -4 -18 7 -21 14 -7 14 6 0 13 -4 16 -10z m726 -17 c13 -15 12 -15 -8 -4
-24 12 -29 21 -14 21 5 0 15 -7 22 -17z m950 -134 c23 -11 39 -22 37 -25 -7
-7 -68 17 -68 27 0 5 -4 9 -9 9 -5 0 -18 -28 -28 -62 -17 -57 -21 -63 -51 -69
-17 -3 -40 -13 -49 -20 -9 -8 -14 -9 -10 -2 5 8 -2 8 -28 1 -19 -6 -32 -14
-30 -18 2 -4 -9 -7 -26 -6 -17 1 -28 6 -27 13 3 13 225 173 240 173 5 0 27 -9
49 -21z m243 -38 c11 -12 15 -21 9 -21 -5 0 -18 9 -27 19 -10 11 -24 17 -30
15 -7 -3 -21 7 -30 21 l-17 26 38 -19 c21 -11 47 -29 57 -41z m409 42 c-7 -2
-19 -2 -25 0 -7 3 -2 5 12 5 14 0 19 -2 13 -5z m-29 -18 c3 3 3 0 -2 -5 -4 -5
-23 -12 -42 -15 -19 -3 -28 -2 -20 1 8 4 19 13 23 21 6 10 12 11 21 4 7 -6 16
-9 20 -6z m195 -7 c-5 -10 -12 -18 -14 -18 -2 0 -3 8 -2 18 0 10 7 19 13 19 9
0 10 -5 3 -19z m-2852 -10 c-3 -8 -6 -5 -6 6 -1 11 2 17 5 13 3 -3 4 -12 1
-19z m2576 15 c-7 -2 -21 -2 -30 0 -10 3 -4 5 12 5 17 0 24 -2 18 -5z m-53 -7
c0 -2 -7 -7 -16 -10 -8 -3 -12 -2 -9 4 6 10 25 14 25 6z m-77 -23 c-7 -2 -19
-2 -25 0 -7 3 -2 5 12 5 14 0 19 -2 13 -5z m-44 -31 c0 -11 -3 -12 -6 -4 -2 6
-12 12 -21 12 -14 0 -15 2 -2 9 18 12 30 5 29 -17z m-2729 -76 c0 -2 -9 -6
-20 -9 -11 -3 -18 -1 -14 4 5 9 34 13 34 5z m3497 -73 c-20 -2 -52 -2 -70 0
-17 2 0 4 38 4 39 0 53 -2 32 -4z"/>
<path d="M2298 3303 c6 -2 18 -2 25 0 6 3 1 5 -13 5 -14 0 -19 -2 -12 -5z"/>
<path d="M2255 3179 c-4 -5 -10 -7 -15 -4 -4 3 -11 -2 -14 -11 -3 -9 -2 -12 5
-8 6 3 22 9 37 13 21 6 23 9 9 14 -9 3 -19 2 -22 -4z"/>
<path d="M2435 2960 c-65 -24 -48 -24 40 -1 45 13 59 19 40 19 -16 0 -52 -8
-80 -18z"/>
<path d="M2216 2831 c-4 -5 3 -7 14 -4 23 6 26 13 6 13 -8 0 -17 -4 -20 -9z"/>
<path d="M3090 1816 c0 -2 7 -7 16 -10 8 -3 12 -2 9 4 -6 10 -25 14 -25 6z"/>
<path d="M1520 1420 c-11 -7 -7 -10 18 -10 17 0 32 5 32 10 0 13 -30 13 -50 0z"/>
<path d="M2972 1290 c0 -14 2 -19 5 -12 2 6 2 18 0 25 -3 6 -5 1 -5 -13z"/>
<path d="M1760 1469 c0 -5 5 -7 10 -4 6 3 10 8 10 11 0 2 -4 4 -10 4 -5 0 -10
-5 -10 -11z"/>
<path d="M2961 1024 c0 -11 3 -14 6 -6 3 7 2 16 -1 19 -3 4 -6 -2 -5 -13z"/>
<path d="M2933 533 c9 -2 23 -2 30 0 6 3 -1 5 -18 5 -16 0 -22 -2 -12 -5z"/>
<path d="M925 490 c-16 -7 -17 -9 -3 -9 9 -1 20 4 23 9 7 11 7 11 -20 0z"/>
<path d="M233 2613 c9 -2 23 -2 30 0 6 3 -1 5 -18 5 -16 0 -22 -2 -12 -5z"/>
<path d="M478 2563 c6 -2 18 -2 25 0 6 3 1 5 -13 5 -14 0 -19 -2 -12 -5z"/>
<path d="M3154 2561 c-80 -20 -127 -76 -139 -166 -15 -112 43 -202 143 -224
129 -27 216 -4 265 71 50 77 32 224 -34 285 -40 37 -154 53 -235 34z m-5 -108
c19 -52 1 -126 -37 -151 -23 -15 -25 -15 -38 3 -19 26 -18 109 2 148 31 60 52
60 73 0z"/>
<path d="M2770 2105 c0 -12 13 -15 55 -15 42 0 55 3 55 15 0 12 -13 15 -55 15
-42 0 -55 -3 -55 -15z"/>
<path d="M2770 2054 c0 -7 15 -14 34 -16 41 -5 56 0 56 15 0 7 -18 12 -45 12
-28 0 -45 -4 -45 -11z"/>
<path d="M2765 2009 c-7 -11 18 -22 40 -17 9 1 17 7 18 12 3 12 -51 17 -58 5z"/>
<path d="M2770 1949 c0 -18 2 -19 15 -9 8 7 15 16 15 21 0 5 -7 9 -15 9 -9 0
-15 -9 -15 -21z"/>
<path d="M1433 1863 c6 -26 18 -55 26 -63 16 -17 15 -10 -11 62 -21 55 -27 55
-15 1z"/>
<path d="M2766 1901 c-4 -7 -5 -15 -2 -18 9 -9 19 4 14 18 -4 11 -6 11 -12 0z"/>
<path d="M1382 1865 c0 -16 2 -22 5 -12 2 9 2 23 0 30 -3 6 -5 -1 -5 -18z"/>
<path d="M2495 1366 c-6 -8 -32 -47 -60 -87 -27 -41 -69 -101 -94 -133 l-45
-59 30 7 c47 11 75 38 110 106 52 101 91 211 59 166z"/>
<path d="M3810 1214 c-18 -10 -20 -14 -8 -14 11 0 15 -5 12 -15 -4 -9 0 -15
10 -15 11 0 16 9 16 30 0 17 -1 30 -2 29 -2 -1 -14 -7 -28 -15z"/>
<path d="M2289 1199 c-13 -11 -18 -17 -10 -13 9 5 12 3 7 -5 -4 -6 -13 -11
-19 -10 -12 2 -80 -24 -107 -41 -8 -5 -88 -45 -177 -89 -90 -44 -163 -82 -163
-84 0 -6 172 63 186 74 19 16 165 79 159 69 -4 -6 -95 -54 -203 -108 -107 -53
-189 -98 -180 -100 25 -5 406 169 446 204 42 35 108 124 94 124 -6 0 -20 -9
-33 -21z"/>
<path d="M0 611 l0 -540 108 54 c103 52 242 158 197 150 -11 -2 -28 -4 -39 -4
-11 -1 -16 -6 -13 -15 3 -8 0 -17 -8 -20 -9 -3 -12 0 -9 9 3 8 -1 21 -9 29
-13 14 -16 14 -27 1 -10 -12 -10 -19 1 -32 12 -15 12 -16 -1 -8 -8 4 -24 15
-34 24 -13 11 -17 12 -11 2 5 -9 3 -12 -6 -9 -8 3 -13 10 -12 16 2 6 -10 10
-26 10 -57 -2 -50 14 26 53 66 34 176 77 216 83 6 1 17 4 22 8 11 7 86 23 96
20 4 0 15 8 25 20 19 20 19 21 -1 15 -11 -3 -33 -9 -50 -13 -16 -3 -67 -17
-113 -30 -74 -21 -149 -24 -138 -5 2 3 -6 7 -17 8 -12 0 -35 7 -52 13 -29 12
-28 13 45 26 311 58 470 92 600 132 52 16 120 35 150 42 l55 13 -45 19 c-25
11 -80 33 -123 48 -116 43 -205 96 -269 161 -46 48 -70 62 -132 85 -48 16 -93
41 -120 65 -34 30 -66 45 -160 74 -64 19 -119 35 -122 35 -2 0 -4 -243 -4
-539z m515 39 c3 -6 -1 -7 -9 -4 -18 7 -21 14 -7 14 6 0 13 -4 16 -10z m145
-61 c0 -10 -32 1 -90 31 -60 30 -49 32 25 2 36 -14 65 -29 65 -33z m-360 -323
c0 -2 -8 -10 -17 -17 -16 -13 -17 -12 -4 4 13 16 21 21 21 13z"/>
<path d="M2030 1090 c-72 -38 -60 -38 21 0 35 16 57 29 49 29 -8 0 -40 -13
-70 -29z"/>
<path d="M2738 1093 c12 -2 32 -2 45 0 12 2 2 4 -23 4 -25 0 -35 -2 -22 -4z"/>
<path d="M908 588 c9 -9 15 -9 24 0 9 9 7 12 -12 12 -19 0 -21 -3 -12 -12z"/>
<path d="M1320 590 c8 -5 20 -10 25 -10 6 0 3 5 -5 10 -8 5 -19 10 -25 10 -5
0 -3 -5 5 -10z"/>
<path d="M816 572 c-15 -3 -16 -6 -5 -13 10 -6 10 -9 2 -9 -7 0 -13 -4 -13 -9
0 -11 18 -9 47 7 12 7 29 12 37 12 9 0 16 3 16 8 0 8 -55 11 -84 4z m41 -8
c-3 -3 -12 -4 -19 -1 -8 3 -5 6 6 6 11 1 17 -2 13 -5z"/>
<path d="M1520 556 c0 -9 30 -14 35 -6 4 6 -3 10 -14 10 -12 0 -21 -2 -21 -4z"/>
<path d="M716 507 c3 -10 9 -15 12 -12 3 3 0 11 -7 18 -10 9 -11 8 -5 -6z"/>
<path d="M477 343 c-12 -12 -7 -21 16 -26 21 -6 21 -5 4 8 -18 13 -17 14 5 18
20 4 21 4 2 6 -11 0 -24 -2 -27 -6z"/>
<path d="M325 300 c-3 -5 3 -10 15 -10 12 0 18 5 15 10 -3 6 -10 10 -15 10 -5
0 -12 -4 -15 -10z"/>
<path d="M15 60 c-3 -5 -1 -10 4 -10 6 0 11 5 11 10 0 6 -2 10 -4 10 -3 0 -8
-4 -11 -10z"/>
<path d="M2207 15 c-5 -11 0 -15 19 -15 16 0 24 5 22 13 -7 18 -35 20 -41 2z"/>
</g>
</svg>
